<svg version="1.2" xmlns="http://www.w3.org/2000/svg" viewBox="0 0 512 512" width="512" height="512"><defs><linearGradient id="P" gradientUnits="userSpaceOnUse"/><linearGradient id="g1" x2="1" href="#P" gradientTransform="matrix(510,0,0,510,1,256)"><stop stop-color="#08eb98"/><stop offset="1" stop-color="#037e51"/></linearGradient></defs><style>.a{fill:url(#g1)}</style><path fill-rule="evenodd" class="a" d="m226.6 509.3q-14.6-1.6-28.9-5-14.3-3.4-28.2-8.4-13.8-5-27-11.5-3.4-1.8-7-2.9-3.6-1.1-7.4-1.5-3.7-0.4-7.5-0.2-3.8 0.3-7.4 1.2l-56.8 15.2c-5.6 1.5-11.5 1.5-17.1 0-5.7-1.5-10.8-4.5-14.9-8.6-4.1-4.1-7-9.2-8.6-14.9-1.5-5.6-1.5-11.5 0-17.1l15.2-56.8c2.6-9.8 1.1-20.2-3.4-29.2-17-34.2-26.6-72.8-26.6-113.6 0-140.8 114.2-255 255-255 140.8 0 255 114.2 255 255 0 140.8-114.2 255-255 255q-14.7 0-29.4-1.7zm-72.6-221.4c-5.1 0-9.9 2-13.5 5.6-3.6 3.6-5.6 8.4-5.6 13.5 0 5.1 2 9.9 5.6 13.5 3.6 3.6 8.4 5.6 13.5 5.6h140.3c5 0 9.9-2 13.5-5.6 3.6-3.6 5.6-8.4 5.6-13.5 0-5.1-2-9.9-5.6-13.5-3.6-3.6-8.5-5.6-13.6-5.6zm-17.6-62.8c0.9 2.3 2.4 4.4 4.1 6.2 1.8 1.7 3.9 3.2 6.2 4.1 2.4 1 4.8 1.5 7.3 1.5h204c5.1 0 10-2 13.6-5.6 3.6-3.6 5.6-8.5 5.6-13.5 0-5.1-2-10-5.6-13.6-3.6-3.6-8.5-5.6-13.6-5.6h-204c-2.5 0-4.9 0.5-7.3 1.5-2.3 0.9-4.4 2.4-6.2 4.1-1.7 1.8-3.2 3.9-4.1 6.2-1 2.4-1.5 4.8-1.5 7.4 0 2.5 0.5 4.9 1.5 7.3z"/></svg>